<svg xmlns="http://www.w3.org/2000/svg" xmlns:xlink="http://www.w3.org/1999/xlink" width="160" height="160" viewBox="0 0 160 160">
  <defs>
    <style>
      .cls-1 {
        clip-path: url(#clip-chart-icon);
      }

      .cls-2 {
        fill: #fff;
      }
    </style>
    <clipPath id="clip-chart-icon">
      <rect width="160" height="160"/>
    </clipPath>
  </defs>
  <g id="chart-icon" class="cls-1">
    <rect class="cls-2" width="160" height="160"/>
    <circle id="Ellipse_926" data-name="Ellipse 926" class="cls-2" cx="80" cy="80" r="80" transform="translate(0.44)"/>
    <path id="Ellipse_926_-_Outline" data-name="Ellipse 926 - Outline" d="M80,6.957A73.043,73.043,0,1,0,153.044,80,73.126,73.126,0,0,0,80,6.957M80,0A80,80,0,1,1,0,80,80,80,0,0,1,80,0Z"/>
    <path id="Path_728" data-name="Path 728" class="cls-2" d="M14273.2-7769.828c-.375-14.883,7.656-40.754,32.8-40.742s25.914,55.77,42.078,56.594c16.148.82,16.359-31.906,27.406-31.7s11.563,10.828,11.5,17.5" transform="translate(-14250.085 7862.269)"/>
    <path id="Path_728_-_Outline" data-name="Path 728 - Outline" d="M14351.688-7747.5c-.266,0-.539-.008-.8-.023-6.7-.34-10.5-6.98-11.75-9.168-2.641-4.609-4.859-10.574-7.2-16.883-5.32-14.312-11.352-30.531-22.953-30.539h-.016a25.223,25.223,0,0,0-18.75,7.633c-7.6,7.8-10.781,20.461-10.555,29.547l-6.953.176c-.25-9.777,2.883-24.7,12.531-34.578,6.3-6.457,14.281-9.73,23.727-9.73h.016c7.531,0,13.781,3.984,19.117,12.18,4.3,6.59,7.375,14.875,10.352,22.891,3.711,9.973,7.914,21.277,12.789,21.523.125.008.258.012.383.012,5.727,0,8.953-6.6,12.852-15.863,3.273-7.8,6.664-15.852,13.875-15.852h.18c6.227.113,10.742,3.031,13.047,8.434,1.711,4,1.906,8.6,1.867,12.57l-6.953-.062c.094-10.086-2.1-13.879-8.086-13.984h-.031c-2.617,0-5.2,6.152-7.484,11.59C14367.094-7758.645,14362.414-7747.508,14351.688-7747.5Z" transform="translate(-14253.07 7859.29)"/>
  </g>
</svg>
