<svg xmlns="http://www.w3.org/2000/svg" xmlns:xlink="http://www.w3.org/1999/xlink" width="160" height="160" viewBox="0 0 160 160">
  <defs>
    <style>
      .cls-1 {
        clip-path: url(#clip-clock-icon);
      }

      .cls-2 {
        fill: #fff;
      }
    </style>
    <clipPath id="clip-clock-icon">
      <rect width="160" height="160"/>
    </clipPath>
  </defs>
  <g id="clock-icon" class="cls-1">
    <rect class="cls-2" width="160" height="160"/>
    <circle id="Ellipse_926" data-name="Ellipse 926" class="cls-2" cx="80" cy="80" r="80" transform="translate(0.44)"/>
    <path id="Ellipse_926_-_Outline" data-name="Ellipse 926 - Outline" d="M80,6.957A73.043,73.043,0,1,0,153.044,80,73.126,73.126,0,0,0,80,6.957M80,0A80,80,0,1,1,0,80,80,80,0,0,1,80,0Z"/>
    <path id="Path_795" data-name="Path 795" class="cls-2" d="M57.645,0A57.645,57.645,0,1,1,0,57.645,57.645,57.645,0,0,1,57.645,0Z" transform="translate(22.354 22.357)"/>
    <g id="Group_1810" data-name="Group 1810">
      <path id="Ellipse_930_-_Outline" data-name="Ellipse 930 - Outline" d="M57.645,6.957a50.689,50.689,0,1,0,50.689,50.689A50.746,50.746,0,0,0,57.645,6.957m0-6.957A57.645,57.645,0,1,1,0,57.645,57.645,57.645,0,0,1,57.645,0Z" transform="translate(22.354 22.357)"/>
      <path id="Line_366" data-name="Line 366" d="M5.244,35.55A3.478,3.478,0,0,1,1.78,32.342L-.489,3.249a3.478,3.478,0,0,1,6.935-.541L8.715,31.8a3.478,3.478,0,0,1-3.2,3.738Q5.38,35.55,5.244,35.55Z" transform="translate(74.752 52.358)"/>
      <path id="Path_665" data-name="Path 665" d="M24.9,6.457H2.978a3.478,3.478,0,0,1,0-6.957H24.9a3.478,3.478,0,1,1,0,6.957Z" transform="translate(76.492 77.025)"/>
      <path id="Path_794" data-name="Path 794" d="M8.869,0A8.869,8.869,0,1,1,0,8.869,8.869,8.869,0,0,1,8.869,0Z" transform="translate(71.131 71.135)"/>
      <path id="Line_424" data-name="Line 424" d="M6.457,13.913H-.5V0H6.457Z" transform="translate(76.611 24.504)"/>
      <path id="Line_425" data-name="Line 425" d="M13.913,6.457H0V-.5H13.913Z" transform="translate(117.85 77.178)"/>
      <path id="Line_426" data-name="Line 426" d="M6.457,13.913H-.5V0H6.457Z" transform="translate(76.611 118.417)"/>
      <path id="Line_427" data-name="Line 427" d="M13.913,6.457H0V-.5H13.913Z" transform="translate(27.415 77.178)"/>
      <path id="Line_428" data-name="Line 428" d="M6.6,11.522-.354,4.565,4.565-.354,11.522,6.6Z" transform="translate(35.744 46.271)"/>
      <path id="Line_429" data-name="Line 429" d="M4.565,11.522-.354,6.6,6.6-.354l4.919,4.919Z" transform="translate(112.266 46.271)"/>
      <path id="Line_430" data-name="Line 430" d="M4.565,11.522-.354,6.6,6.6-.354l4.919,4.919Z" transform="translate(42.701 109.355)"/>
      <path id="Line_431" data-name="Line 431" d="M6.6,11.522-.354,4.565,4.565-.354,11.522,6.6Z" transform="translate(105.309 109.355)"/>
    </g>
  </g>
</svg>
