<svg xmlns="http://www.w3.org/2000/svg" xmlns:xlink="http://www.w3.org/1999/xlink" width="120" height="120" viewBox="0 0 120 120">
  <defs>
    <style>
      .cls-1 {
        clip-path: url(#clip-save-icon);
      }

      .cls-2 {
        fill: #fff;
      }
    </style>
    <clipPath id="clip-save-icon">
      <rect width="120" height="120"/>
    </clipPath>
  </defs>
  <g id="save-icon" class="cls-1">
    <rect class="cls-2" width="120" height="120"/>
    <g id="Group_1820" data-name="Group 1820" transform="translate(-6819.99 -2362.564)">
      <path id="Path_809" data-name="Path 809" d="M28.235,120h-.01l-18.231-.01A10.014,10.014,0,0,1,0,109.979V9.995A10.005,10.005,0,0,1,9.994,0h100a10.01,10.01,0,0,1,10,9.994v99.985a10.018,10.018,0,0,1-10,10.011H91.765V91.751H28.235V120ZM14.115,14.12V63.53H105.87V14.12Z" transform="translate(6820 2362.563)"/>
      <path id="Path_808" data-name="Path 808" d="M0,0H30V30H0Z" transform="translate(6877.856 2452.547)"/>
    </g>
  </g>
</svg>
